# xmcd
#
# Track frame offsets:
#	150
#	11624
#	24536
#	35175
#	44988
#	55321
#	65921
#	77731
#	89039
#	98947
#	108030
#	120971
#	131083
#	142265
#	151836
#	162392
#	175566
#	186257
#	199024
#	213847
#
# Disc length: 2995 seconds
#
# Revision: 1
# Processed by: cddbd v1.5.2PL0 Copyright (c) Steve Scherf et al.
# Submitted via: audiograbber 1.83.01
#
DISCID=220bb114
DTITLE=Various Artist - All In My Mind - The Wand Records Story - 1961-1962  (
DTITLE=CD2)
DYEAR=2015
DGENRE=Oldies
TTITLE0=Isley Brothers - Twist And Shout
TTITLE1=Russell Byrd - Nights Of Mexico
TTITLE2=Maxine Brown - Funny
TTITLE3=Deep River Boys - The Vanishing American
TTITLE4=Joey Dee and The Starliters - Shimmy Baby
TTITLE5=Chuck Jackson - The Breaking Point
TTITLE6=Del Marino - I'll Never Be The Same
TTITLE7=Gerry Granahan - No Chemise, Please
TTITLE8=Eloise - Ooh Baby
TTITLE9=Renaults - Another Train Pulled Out
TTITLE10=Lee Andrews and The Hearts - Long Lonely Nights
TTITLE11=Isley Brothers - You Better Come Home
TTITLE12=Douglas 'Jocko' Henderson - Blast Off To Love
TTITLE13=Shirelles - Mama Said
TTITLE14=Bette Watts - Do Me A Favor
TTITLE15=Soul Brothers - Notify Me
TTITLE16=Chuck Jackson - Getting Ready For The Heartbreak
TTITLE17=Shep and The Limelites - Ready For Your Love
TTITLE18=Isley Brothers - Right Now
TTITLE19=Leeds - Mr. Cool
EXTD=
EXTT0=
EXTT1=
EXTT2=
EXTT3=
EXTT4=
EXTT5=
EXTT6=
EXTT7=
EXTT8=
EXTT9=
EXTT10=
EXTT11=
EXTT12=
EXTT13=
EXTT14=
EXTT15=
EXTT16=
EXTT17=
EXTT18=
EXTT19=
PLAYORDER=
